<svg width="48" height="48" viewBox="0 0 48 48" fill="none" xmlns="http://www.w3.org/2000/svg">
<path d="M24 2.00571C36.0969 2.00571 45.9943 11.9031 45.9943 24C45.9943 36.0969 36.0969 45.9943 24 45.9943C11.9031 45.9943 2.00571 36.0969 2.00571 24C2.00571 11.9031 11.9031 2.00571 24 2.00571ZM24 0C10.7 0 0 10.7 0 24C0 37.3 10.7 48 24 48C37.3 48 48 37.3 48 24C48 10.7 37.3 0 24 0Z" fill="#0076A8"/>
<path d="M10.2861 16.14C9.73227 16.14 9.28328 16.589 9.28328 17.1428C9.28328 17.6967 9.73227 18.1457 10.2861 18.1457V16.14ZM20.5718 18.1457C21.1257 18.1457 21.5747 17.6967 21.5747 17.1428C21.5747 16.589 21.1257 16.14 20.5718 16.14V18.1457ZM10.2861 18.1457L20.5718 18.1457V16.14L10.2861 16.14V18.1457Z" fill="#0076A8"/>
<path d="M25.7139 28.14C25.16 28.14 24.711 28.589 24.711 29.1428C24.711 29.6967 25.16 30.1457 25.7139 30.1457V28.14ZM35.9996 30.1457C36.5534 30.1457 37.0024 29.6967 37.0024 29.1428C37.0024 28.589 36.5534 28.14 35.9996 28.14V30.1457ZM25.7139 30.1457L35.9996 30.1457V28.14L25.7139 28.14V30.1457Z" fill="#0076A8"/>
<path d="M25.7139 33.2829C25.16 33.2829 24.711 33.7319 24.711 34.2858C24.711 34.8396 25.16 35.2886 25.7139 35.2886V33.2829ZM35.9996 35.2886C36.5534 35.2886 37.0024 34.8396 37.0024 34.2858C37.0024 33.7319 36.5534 33.2829 35.9996 33.2829V35.2886ZM25.7139 35.2886H35.9996V33.2829H25.7139V35.2886Z" fill="#0076A8"/>
<path d="M28.1378 13.0051C27.7462 12.6135 27.1112 12.6135 26.7196 13.0051C26.3279 13.3967 26.3279 14.0317 26.7196 14.4234L28.1378 13.0051ZM33.5767 21.2805C33.9684 21.6721 34.6033 21.6721 34.995 21.2805C35.3866 20.8889 35.3866 20.2539 34.995 19.8622L33.5767 21.2805ZM26.7196 14.4234L33.5767 21.2805L34.995 19.8622L28.1378 13.0051L26.7196 14.4234Z" fill="#0076A8"/>
<path d="M16.4316 26.0081C16.4316 25.4542 15.9826 25.0052 15.4287 25.0052C14.8748 25.0052 14.4259 25.4542 14.4259 26.0081H16.4316ZM14.4259 35.7055C14.4259 36.2594 14.8748 36.7084 15.4287 36.7084C15.9826 36.7084 16.4316 36.2594 16.4316 35.7055H14.4259ZM14.4259 26.0081V35.7055H16.4316V26.0081H14.4259Z" fill="#0076A8"/>
<path d="M26.7196 19.8623C26.3279 20.2539 26.3279 20.8889 26.7196 21.2805C27.1112 21.6722 27.7462 21.6722 28.1378 21.2805L26.7196 19.8623ZM34.995 14.4234C35.3866 14.0318 35.3866 13.3968 34.995 13.0051C34.6033 12.6135 33.9684 12.6135 33.5767 13.0051L34.995 14.4234ZM28.1378 21.2805L34.995 14.4234L33.5767 13.0051L26.7196 19.8623L28.1378 21.2805Z" fill="#0076A8"/>
<path d="M10.5801 29.8543C10.0262 29.8543 9.57722 30.3033 9.57722 30.8572C9.57722 31.411 10.0262 31.86 10.5801 31.86V29.8543ZM20.2775 31.86C20.8314 31.86 21.2804 31.411 21.2804 30.8572C21.2804 30.3033 20.8314 29.8543 20.2775 29.8543V31.86ZM10.5801 31.86H20.2775V29.8543H10.5801V31.86Z" fill="#0076A8"/>
</svg>
