<svg width="40" height="40" viewBox="0 0 40 40" fill="none" xmlns="http://www.w3.org/2000/svg">
<rect width="40" height="40" fill="white"/>
<path fill-rule="evenodd" clip-rule="evenodd" d="M20.0524 1C9.5199 1 1 9.51193 1 19.9677C1 30.4233 9.5199 39.0022 19.9853 39.0022C30.4507 39.0022 39.0377 30.4903 39.0377 20.0346C39.1048 9.51193 30.5849 1 20.0524 1ZM20.0524 37.6618C10.2579 37.6618 2.34174 29.7531 2.34174 20.0346C2.34174 10.2492 10.2579 2.34048 19.9853 2.34048C29.7798 2.34048 37.696 10.2492 37.696 19.9677C37.7631 29.7531 29.8469 37.6618 20.0524 37.6618Z" fill="#0076A8"/>
<path fill-rule="evenodd" clip-rule="evenodd" d="M27.2307 28.0776C26.8282 28.0776 26.5598 28.3456 26.5598 28.7478V30.1553H12.4047V9.84714H21.998V13.7346C21.998 14.1367 22.2664 14.4048 22.6689 14.4048H26.5598V16.0133C26.5598 16.4155 26.8282 16.6836 27.2307 16.6836C27.6332 16.6836 27.9016 16.4155 27.9016 16.0133V13.7346C27.9016 13.6675 27.9016 13.5334 27.8344 13.4665C27.7673 13.3995 27.7673 13.3324 27.7003 13.2654L23.1385 8.70782C23.0714 8.64072 23.0043 8.57373 22.9372 8.57373C22.8701 8.57373 22.803 8.57373 22.736 8.57373H22.6689H11.7339C11.3314 8.57373 11.063 8.84177 11.063 9.24399V30.8926C11.063 31.2947 11.3314 31.5628 11.7339 31.5628H27.2307C27.6332 31.5628 27.9016 31.2947 27.9016 30.8926V28.8148C27.9686 28.4127 27.7003 28.0776 27.2307 28.0776C27.2977 28.0776 27.2977 28.0776 27.2307 28.0776ZM23.4068 10.7855L25.6877 13.0644H23.4068V10.7855Z" fill="#0076A8"/>
<path fill-rule="evenodd" clip-rule="evenodd" d="M25.0168 17.0186C24.4801 17.0186 23.9434 17.0857 23.4738 17.2197H23.4067H14.7526C14.3502 17.2197 14.0818 17.4878 14.0818 17.8899C14.0818 18.2921 14.3502 18.5602 14.7526 18.5602H21.2599C20.7233 19.0293 20.3878 19.6326 20.0524 20.3028H14.7526C14.3502 20.3028 14.0818 20.5709 14.0818 20.9731C14.0818 21.3752 14.3502 21.6433 14.7526 21.6433H19.6498C19.5828 21.9113 19.5828 22.1795 19.5828 22.4476C19.5828 22.7827 19.5828 23.1179 19.717 23.453H14.7526C14.3502 23.453 14.0818 23.721 14.0818 24.1232C14.0818 24.5253 14.3502 24.7934 14.7526 24.7934H20.1866C20.522 25.4637 20.9916 26.0668 21.5954 26.536H14.8198C14.4172 26.536 14.1489 26.8041 14.1489 27.2062C14.1489 27.6083 14.4172 27.8765 14.8198 27.8765H24.7485C24.8156 27.8765 24.9497 27.8765 25.0168 27.8095H25.0839C28.1027 27.9435 30.5849 25.5976 30.7191 22.5816C30.8532 19.5655 28.5053 17.0857 25.4864 16.9517C25.2852 17.0186 25.151 17.0186 25.0168 17.0186ZM25.0168 26.469C22.7358 26.469 20.9245 24.6594 20.9245 22.3805C20.9245 20.1018 22.7358 18.2921 25.0168 18.2921C27.2977 18.2921 29.1089 20.1018 29.1089 22.3805C29.1089 24.6594 27.2307 26.469 25.0168 26.469Z" fill="#0076A8"/>
<path fill-rule="evenodd" clip-rule="evenodd" d="M26.761 20.1686L24.0105 22.9836L23.2725 22.2463C23.0042 21.9782 22.6017 21.9782 22.3333 22.2463C22.065 22.5144 22.065 22.9165 22.3333 23.1846L23.5409 24.4581C23.675 24.5921 23.8093 24.6592 24.0105 24.6592C24.2117 24.6592 24.3459 24.5921 24.4801 24.4581L27.7003 21.1069C27.9685 20.8388 27.9685 20.4367 27.7003 20.1686C27.499 19.9005 27.0964 19.9005 26.761 20.1686Z" fill="#0076A8"/>
</svg>
