<svg width="48" height="48" viewBox="0 0 48 48" fill="none" xmlns="http://www.w3.org/2000/svg">
<path d="M24 2.00571C36.0969 2.00571 45.9943 11.9031 45.9943 24C45.9943 36.0969 36.0969 45.9943 24 45.9943C11.9031 45.9943 2.00571 36.0969 2.00571 24C2.00571 11.9031 11.9031 2.00571 24 2.00571ZM24 0C10.7 0 0 10.7 0 24C0 37.3 10.7 48 24 48C37.3 48 48 37.3 48 24C48 10.7 37.3 0 24 0Z" fill="#0076A8"/>
<path d="M14.7357 34.6289C14.3354 35.0116 14.3211 35.6464 14.7038 36.0468C15.0866 36.4471 15.7214 36.4614 16.1217 36.0786L14.7357 34.6289ZM19.2382 31.7116L19.9313 32.4365C20.1292 32.2473 20.2411 31.9854 20.2411 31.7116C20.2411 31.4378 20.1292 31.176 19.9313 30.9868L19.2382 31.7116ZM16.1217 27.3446C15.7214 26.9619 15.0866 26.9761 14.7038 27.3765C14.3211 27.7768 14.3354 28.4116 14.7357 28.7944L16.1217 27.3446ZM16.1217 36.0786L19.9313 32.4365L18.5452 30.9868L14.7357 34.6289L16.1217 36.0786ZM19.9313 30.9868L16.1217 27.3446L14.7357 28.7944L18.5452 32.4365L19.9313 30.9868Z" fill="#0076A8"/>
<path d="M18.857 32.7146C19.4109 32.7146 19.8599 32.2657 19.8599 31.7118C19.8599 31.1579 19.4109 30.7089 18.857 30.7089L18.857 32.7146ZM16.1903 31.7118L16.1903 30.7089L16.1903 30.7089L16.1903 31.7118ZM9.57415 24.4275C9.57415 23.8737 9.12515 23.4247 8.57129 23.4247C8.01743 23.4247 7.56843 23.8737 7.56843 24.4275L9.57415 24.4275ZM18.857 30.7089L16.1903 30.7089L16.1903 32.7146L18.857 32.7146L18.857 30.7089ZM16.1903 30.7089C12.4917 30.7089 9.57415 27.8562 9.57415 24.4275L7.56843 24.4275C7.56843 29.0479 11.4699 32.7146 16.1903 32.7146L16.1903 30.7089Z" fill="#0076A8"/>
<path d="M20.5713 16.14C21.1252 16.14 21.5741 16.589 21.5741 17.1428C21.5741 17.6967 21.1252 18.1457 20.5713 18.1457L20.5713 16.14ZM16.1903 17.1428L16.1903 18.1457H16.1903L16.1903 17.1428ZM9.57415 24.4271C9.57415 24.981 9.12515 25.43 8.57129 25.43C8.01743 25.43 7.56843 24.981 7.56843 24.4271L9.57415 24.4271ZM20.5713 18.1457L16.1903 18.1457L16.1903 16.14L20.5713 16.14L20.5713 18.1457ZM16.1903 18.1457C13.8909 18.1457 12.2633 18.8819 11.2091 19.9727C10.1471 21.0715 9.57415 22.6264 9.57415 24.4271L7.56843 24.4271C7.56843 22.2033 8.28118 20.116 9.76684 18.5788C11.2603 17.0336 13.4421 16.14 16.1903 16.14L16.1903 18.1457Z" fill="#0076A8"/>
<path d="M25.7139 16.14C25.16 16.14 24.711 16.589 24.711 17.1428C24.711 17.6967 25.16 18.1457 25.7139 18.1457L25.7139 16.14ZM39.4282 18.1457C39.982 18.1457 40.431 17.6967 40.431 17.1428C40.431 16.589 39.982 16.14 39.4282 16.14L39.4282 18.1457ZM25.7139 18.1457L39.4282 18.1457L39.4282 16.14L25.7139 16.14L25.7139 18.1457Z" fill="#0076A8"/>
<path d="M25.7139 21.2829C25.16 21.2829 24.711 21.7319 24.711 22.2858C24.711 22.8396 25.16 23.2886 25.7139 23.2886L25.7139 21.2829ZM35.9996 23.2886C36.5534 23.2886 37.0024 22.8396 37.0024 22.2858C37.0024 21.7319 36.5534 21.2829 35.9996 21.2829L35.9996 23.2886ZM25.7139 23.2886L35.9996 23.2886L35.9996 21.2829L25.7139 21.2829L25.7139 23.2886Z" fill="#0076A8"/>
<path d="M25.7139 26.4257C25.16 26.4257 24.711 26.8747 24.711 27.4286C24.711 27.9825 25.16 28.4314 25.7139 28.4314L25.7139 26.4257ZM39.4282 28.4314C39.982 28.4314 40.431 27.9825 40.431 27.4286C40.431 26.8747 39.982 26.4257 39.4282 26.4257L39.4282 28.4314ZM25.7139 28.4314L39.4282 28.4314L39.4282 26.4257L25.7139 26.4257L25.7139 28.4314Z" fill="#0076A8"/>
<path d="M25.7139 31.5686C25.16 31.5686 24.711 32.0175 24.711 32.5714C24.711 33.1253 25.16 33.5743 25.7139 33.5743L25.7139 31.5686ZM32.571 33.5743C33.1249 33.5743 33.5739 33.1253 33.5739 32.5714C33.5739 32.0175 33.1249 31.5686 32.571 31.5686L32.571 33.5743ZM25.7139 33.5743L32.571 33.5743L32.571 31.5686L25.7139 31.5686L25.7139 33.5743Z" fill="#0076A8"/>
</svg>
