<svg width="28" height="28" viewBox="0 0 28 28" fill="none" xmlns="http://www.w3.org/2000/svg">
<path d="M14 1.17C21.0565 1.17 26.83 6.9435 26.83 14C26.83 21.0565 21.0565 26.83 14 26.83C6.9435 26.83 1.17 21.0565 1.17 14C1.17 6.9435 6.9435 1.17 14 1.17ZM14 0C6.24167 0 0 6.24167 0 14C0 21.7583 6.24167 28 14 28C21.7583 28 28 21.7583 28 14C28 6.24167 21.7583 0 14 0Z" fill="#012169"/>
<path d="M13.9999 1.17004C21.0564 1.17004 26.8299 6.94354 26.8299 14C26.8299 21.0565 21.0564 26.83 13.9999 26.83C6.94342 26.83 1.16992 21.0565 1.16992 14C1.16992 6.94354 6.94342 1.17004 13.9999 1.17004Z" fill="white"/>
<path d="M13.9999 1.17004C21.0564 1.17004 26.8299 6.94354 26.8299 14C26.8299 21.0565 21.0564 26.83 13.9999 26.83C6.94342 26.83 1.16992 21.0565 1.16992 14C1.16992 6.94354 6.94342 1.17004 13.9999 1.17004Z" fill="black" fill-opacity="0.06"/>
<path d="M9 10H23M9 14H23M9 18H23" stroke="#012169" stroke-width="1.17" stroke-linecap="round" stroke-linejoin="round"/>
<circle cx="6" cy="10" r="1" fill="#012169"/>
<circle cx="6" cy="14" r="1" fill="#012169"/>
<circle cx="6" cy="18" r="1" fill="#012169"/>
</svg>
